<svg width="1283" height="387" viewBox="0 0 1283 387" fill="none" xmlns="http://www.w3.org/2000/svg">
<path d="M8.71418 307.4L110.721 214.63C115.128 210.018 129.359 200.982 142.204 204.252C158.261 208.341 176.256 259.536 194.781 264.002C203.911 266.204 210.637 263.937 218.394 258.971C238.858 240.731 306.366 178.468 330.475 156.138C347.791 140.1 365.421 118.716 391.238 132.867C414.536 145.638 399.738 190.52 393.442 213.372C391.448 213.267 381.226 213.121 366.366 213.372C347.791 213.687 338.031 215.259 324.808 223.121C311.585 230.983 297.892 248.134 304.973 278.783C312.529 311.488 356.291 301.739 388.09 301.739C388.614 308.029 387.145 325.702 373.292 344.822C355.977 368.722 333.938 370.923 304.658 370.923C274.734 370.923 255.859 374.068 251.137 362.747C246.414 351.426 268.138 279.412 265.619 276.896C263.1 274.38 247.359 291.047 233.506 303.94C220.955 315.622 212.412 325.639 194.781 325.325C177.151 325.01 160.464 301.739 156.686 294.506C152.908 287.273 139.685 265.575 136.537 265.575C133.389 265.575 121.11 339.476 116.388 350.483C111.665 361.489 105.054 366.835 89.9415 369.98C74.8295 373.125 57.8284 372.181 37.3642 369.98C16.8999 367.779 4.93623 353.942 1.15821 340.105C-1.8642 329.035 1.15811 315.261 8.71418 307.4Z" fill="#2E5AA7"/>
<path d="M428.074 222.492C429.222 222.44 430.935 222.685 432.375 223.603C433.84 224.537 435 226.155 435 228.781C435 230.068 434.601 233.214 433.963 237.437C433.323 241.672 432.437 247.021 431.453 252.734C429.486 264.154 427.127 277.04 425.553 285.427C425.49 287.015 424.801 289.354 422.942 291.303C421.062 293.273 418.01 294.82 413.276 294.82H339.563L339.523 294.81C334.964 293.592 328.206 290.406 322.709 284.796C317.205 279.18 312.966 271.13 313.474 260.214C314.107 246.613 319.101 237.723 325.863 231.962C332.616 226.209 341.102 223.6 348.69 222.495L348.713 222.491L428.074 222.492ZM357.236 240.103C348.542 240.103 341.494 247.142 341.494 255.826C341.494 264.51 348.542 271.55 357.236 271.55C365.93 271.55 372.978 264.51 372.978 255.826C372.978 247.142 365.93 240.103 357.236 240.103Z" fill="#FF9C13"/>
<path d="M129.925 177.837C120.858 183.371 65.0695 234.651 38.3086 259.6C38.3086 241.989 71.0514 134.439 88.0525 104.564C105.054 74.6893 151.334 64.6261 179.04 75.3182C206.745 86.0103 232.876 133.496 236.339 134.439C239.11 135.194 242.741 132.867 244.21 131.609L337.086 52.9906L318.511 37.2669C317.357 36.638 315.111 34.7511 315.363 32.2353C315.615 29.7196 319.875 28.4617 321.974 28.1472L420.203 0.159036C421.462 -0.0506127 424.17 -0.218332 424.925 0.787983C425.681 1.7943 425.66 3.30377 425.555 3.93272L403.202 100.162C402.782 101.42 401.313 103.998 398.794 104.25C396.275 104.501 393.966 102.677 393.127 101.734L373.292 81.2932C338.136 114.837 264.423 185.007 250.822 197.334C233.821 212.743 227.524 218.089 212.097 219.662C196.67 221.234 173.058 190.416 166.131 181.296C159.205 172.176 141.259 170.918 129.925 177.837Z" fill="#FF9C13"/>
<path d="M522.377 258V107.304H561.017V144.012L556.877 137.94C559.085 126.348 564.421 117.792 572.885 112.272C581.349 106.752 591.469 103.992 603.245 103.992C615.757 103.992 626.705 107.212 636.089 113.652C645.657 119.908 651.637 128.372 654.029 139.044L642.161 140.148C647.129 127.82 654.213 118.712 663.413 112.824C672.613 106.936 683.377 103.992 695.705 103.992C706.561 103.992 716.129 106.384 724.409 111.168C732.873 115.952 739.497 122.668 744.281 131.316C749.065 139.78 751.457 149.716 751.457 161.124V258H710.057V169.956C710.057 164.068 708.953 159.008 706.745 154.776C704.721 150.544 701.777 147.232 697.913 144.84C694.049 142.448 689.357 141.252 683.837 141.252C678.501 141.252 673.809 142.448 669.761 144.84C665.897 147.232 662.861 150.544 660.653 154.776C658.629 159.008 657.617 164.068 657.617 169.956V258H616.217V169.956C616.217 164.068 615.113 159.008 612.905 154.776C610.881 150.544 607.937 147.232 604.073 144.84C600.209 142.448 595.517 141.252 589.997 141.252C584.661 141.252 579.969 142.448 575.921 144.84C572.057 147.232 569.021 150.544 566.813 154.776C564.789 159.008 563.777 164.068 563.777 169.956V258H522.377Z" fill="#2E5AA7"/>
<path d="M853.497 261.312C838.593 261.312 824.977 257.908 812.649 251.1C800.505 244.292 790.753 235 783.393 223.224C776.217 211.264 772.629 197.74 772.629 182.652C772.629 167.38 776.217 153.856 783.393 142.08C790.753 130.304 800.505 121.012 812.649 114.204C824.977 107.396 838.593 103.992 853.497 103.992C868.401 103.992 881.926 107.396 894.07 114.204C906.214 121.012 915.874 130.304 923.049 142.08C930.41 153.856 934.089 167.38 934.089 182.652C934.089 197.74 930.41 211.264 923.049 223.224C915.874 235 906.214 244.292 894.07 251.1C881.926 257.908 868.401 261.312 853.497 261.312ZM853.497 224.052C861.041 224.052 867.574 222.304 873.094 218.808C878.798 215.312 883.213 210.436 886.341 204.18C889.653 197.924 891.31 190.748 891.31 182.652C891.31 174.556 889.653 167.472 886.341 161.4C883.213 155.144 878.798 150.268 873.094 146.772C867.574 143.092 861.041 141.252 853.497 141.252C845.954 141.252 839.329 143.092 833.625 146.772C827.921 150.268 823.413 155.144 820.102 161.4C816.974 167.472 815.409 174.556 815.409 182.652C815.409 190.748 816.974 197.924 820.102 204.18C823.413 210.436 827.921 215.312 833.625 218.808C839.329 222.304 845.954 224.052 853.497 224.052Z" fill="#2E5AA7"/>
<path d="M1032.45 261.312C1017.36 261.312 1003.74 257.908 991.599 251.1C979.639 244.108 970.071 234.632 962.895 222.672C955.903 210.712 952.407 197.28 952.407 182.376C952.407 167.472 955.903 154.132 962.895 142.356C969.887 130.396 979.455 121.012 991.599 114.204C1003.74 107.396 1017.36 103.992 1032.45 103.992C1043.67 103.992 1054.07 105.924 1063.63 109.788C1073.2 113.652 1081.39 119.08 1088.2 126.072C1095.01 132.88 1099.88 140.976 1102.83 150.36L1066.95 165.816C1064.37 158.272 1059.95 152.292 1053.7 147.876C1047.63 143.46 1040.54 141.252 1032.45 141.252C1025.27 141.252 1018.83 143 1013.13 146.496C1007.61 149.992 1003.19 154.868 999.879 161.124C996.751 167.38 995.187 174.556 995.187 182.652C995.187 190.748 996.751 197.924 999.879 204.18C1003.19 210.436 1007.61 215.312 1013.13 218.808C1018.83 222.304 1025.27 224.052 1032.45 224.052C1040.73 224.052 1047.9 221.844 1053.97 217.428C1060.05 213.012 1064.37 207.032 1066.95 199.488L1102.83 215.22C1100.07 224.052 1095.28 231.964 1088.47 238.956C1081.67 245.948 1073.48 251.468 1063.91 255.516C1054.34 259.38 1043.85 261.312 1032.45 261.312Z" fill="#2E5AA7"/>
<path d="M1202 261.312C1187.1 261.312 1173.48 257.908 1161.15 251.1C1149.01 244.292 1139.26 235 1131.9 223.224C1124.72 211.264 1121.13 197.74 1121.13 182.652C1121.13 167.38 1124.72 153.856 1131.9 142.08C1139.26 130.304 1149.01 121.012 1161.15 114.204C1173.48 107.396 1187.1 103.992 1202 103.992C1216.91 103.992 1230.43 107.396 1242.57 114.204C1254.72 121.012 1264.38 130.304 1271.55 142.08C1278.91 153.856 1282.59 167.38 1282.59 182.652C1282.59 197.74 1278.91 211.264 1271.55 223.224C1264.38 235 1254.72 244.292 1242.57 251.1C1230.43 257.908 1216.91 261.312 1202 261.312ZM1202 224.052C1209.55 224.052 1216.08 222.304 1221.6 218.808C1227.3 215.312 1231.72 210.436 1234.85 204.18C1238.16 197.924 1239.81 190.748 1239.81 182.652C1239.81 174.556 1238.16 167.472 1234.85 161.4C1231.72 155.144 1227.3 150.268 1221.6 146.772C1216.08 143.092 1209.55 141.252 1202 141.252C1194.46 141.252 1187.83 143.092 1182.13 146.772C1176.43 150.268 1171.92 155.144 1168.61 161.4C1165.48 167.472 1163.91 174.556 1163.91 182.652C1163.91 190.748 1165.48 197.924 1168.61 204.18C1171.92 210.436 1176.43 215.312 1182.13 218.808C1187.83 222.304 1194.46 224.052 1202 224.052Z" fill="#2E5AA7"/>
<path d="M501.847 367V300.695H513.417L538.248 334.426H532.73L557.027 300.695H568.597V367H556.404V314.49L561.121 315.647L535.934 349.2H534.51L509.946 315.647L513.951 314.49V367H501.847Z" fill="#2E5AA7"/>
<path d="M603.982 368.068C599.235 368.068 594.904 366.97 590.988 364.775C587.131 362.58 584.046 359.583 581.732 355.786C579.477 351.989 578.35 347.657 578.35 342.792C578.35 337.927 579.477 333.595 581.732 329.798C584.046 326.001 587.131 323.004 590.988 320.809C594.845 318.614 599.176 317.516 603.982 317.516C608.729 317.516 613.03 318.614 616.887 320.809C620.744 323.004 623.799 326.001 626.054 329.798C628.368 333.536 629.525 337.867 629.525 342.792C629.525 347.657 628.368 351.989 626.054 355.786C623.74 359.583 620.655 362.58 616.798 364.775C612.941 366.97 608.669 368.068 603.982 368.068ZM603.982 357.388C606.593 357.388 608.877 356.765 610.835 355.519C612.852 354.273 614.425 352.552 615.552 350.357C616.739 348.102 617.332 345.581 617.332 342.792C617.332 339.944 616.739 337.452 615.552 335.316C614.425 333.121 612.852 331.4 610.835 330.154C608.877 328.849 606.593 328.196 603.982 328.196C601.312 328.196 598.968 328.849 596.951 330.154C594.934 331.4 593.332 333.121 592.145 335.316C591.018 337.452 590.454 339.944 590.454 342.792C590.454 345.581 591.018 348.102 592.145 350.357C593.332 352.552 594.934 354.273 596.951 355.519C598.968 356.765 601.312 357.388 603.982 357.388Z" fill="#2E5AA7"/>
<path d="M638.367 367V318.584H649.313V328.107L648.424 326.416C649.551 323.509 651.39 321.313 653.942 319.83C656.552 318.287 659.578 317.516 663.02 317.516C666.58 317.516 669.724 318.287 672.453 319.83C675.242 321.373 677.408 323.538 678.951 326.327C680.493 329.056 681.265 332.231 681.265 335.85V367H669.606V338.609C669.606 336.473 669.19 334.634 668.359 333.091C667.529 331.548 666.372 330.362 664.888 329.531C663.464 328.641 661.773 328.196 659.815 328.196C657.917 328.196 656.226 328.641 654.742 329.531C653.259 330.362 652.102 331.548 651.271 333.091C650.441 334.634 650.026 336.473 650.026 338.609V367H638.367Z" fill="#2E5AA7"/>
<path d="M714.085 368.068C709.101 368.068 704.74 366.941 701.002 364.686C697.264 362.431 694.357 359.376 692.28 355.519C690.204 351.662 689.165 347.39 689.165 342.703C689.165 337.838 690.204 333.536 692.28 329.798C694.416 326.001 697.294 323.004 700.913 320.809C704.592 318.614 708.686 317.516 713.195 317.516C716.993 317.516 720.315 318.139 723.163 319.385C726.071 320.631 728.533 322.352 730.55 324.547C732.568 326.742 734.11 329.264 735.178 332.112C736.246 334.901 736.78 337.927 736.78 341.19C736.78 342.021 736.721 342.881 736.602 343.771C736.543 344.661 736.395 345.432 736.157 346.085H698.777V337.185H729.571L724.053 341.368C724.587 338.639 724.439 336.206 723.608 334.07C722.837 331.934 721.532 330.243 719.692 328.997C717.912 327.751 715.747 327.128 713.195 327.128C710.763 327.128 708.597 327.751 706.698 328.997C704.8 330.184 703.346 331.964 702.337 334.337C701.388 336.651 701.032 339.469 701.269 342.792C701.032 345.759 701.418 348.399 702.426 350.713C703.494 352.968 705.037 354.718 707.054 355.964C709.131 357.21 711.504 357.833 714.174 357.833C716.844 357.833 719.099 357.269 720.938 356.142C722.837 355.015 724.32 353.502 725.388 351.603L734.822 356.231C733.873 358.545 732.39 360.592 730.372 362.372C728.355 364.152 725.952 365.546 723.163 366.555C720.434 367.564 717.408 368.068 714.085 368.068Z" fill="#2E5AA7"/>
<path d="M751.492 386.58C750.187 386.58 748.911 386.461 747.665 386.224C746.419 386.046 745.292 385.69 744.283 385.156V375.455C745.055 375.633 745.974 375.811 747.042 375.989C748.17 376.167 749.208 376.256 750.157 376.256C752.827 376.256 754.756 375.633 755.942 374.387C757.188 373.2 758.286 371.598 759.235 369.581L762.439 362.105L762.261 371.895L741.168 318.584H753.717L768.491 357.922H764.041L778.726 318.584H791.364L770.271 371.895C769.025 374.98 767.512 377.621 765.732 379.816C763.952 382.011 761.876 383.673 759.502 384.8C757.188 385.987 754.518 386.58 751.492 386.58Z" fill="#2E5AA7"/>
<path d="M845.714 368.068C840.968 368.068 836.577 367.208 832.542 365.487C828.567 363.766 825.066 361.363 822.04 358.278C819.074 355.193 816.76 351.573 815.098 347.42C813.437 343.267 812.606 338.728 812.606 333.803C812.606 328.878 813.407 324.339 815.009 320.186C816.671 315.973 818.985 312.354 821.951 309.328C824.977 306.243 828.508 303.869 832.542 302.208C836.577 300.487 840.968 299.627 845.714 299.627C850.461 299.627 854.703 300.428 858.441 302.03C862.239 303.632 865.443 305.768 868.053 308.438C870.664 311.049 872.533 313.926 873.66 317.071L862.802 322.144C861.556 318.821 859.45 316.092 856.483 313.956C853.517 311.761 849.927 310.663 845.714 310.663C841.561 310.663 837.882 311.642 834.678 313.6C831.534 315.558 829.071 318.258 827.291 321.699C825.571 325.14 824.71 329.175 824.71 333.803C824.71 338.431 825.571 342.495 827.291 345.996C829.071 349.437 831.534 352.137 834.678 354.095C837.882 356.053 841.561 357.032 845.714 357.032C849.927 357.032 853.517 355.964 856.483 353.828C859.45 351.633 861.556 348.874 862.802 345.551L873.66 350.624C872.533 353.769 870.664 356.676 868.053 359.346C865.443 361.957 862.239 364.063 858.441 365.665C854.703 367.267 850.461 368.068 845.714 368.068Z" fill="#2E5AA7"/>
<path d="M905.313 368.068C900.566 368.068 896.235 366.97 892.319 364.775C888.462 362.58 885.377 359.583 883.063 355.786C880.808 351.989 879.681 347.657 879.681 342.792C879.681 337.927 880.808 333.595 883.063 329.798C885.377 326.001 888.462 323.004 892.319 320.809C896.176 318.614 900.507 317.516 905.313 317.516C910.06 317.516 914.361 318.614 918.218 320.809C922.075 323.004 925.13 326.001 927.385 329.798C929.699 333.536 930.856 337.867 930.856 342.792C930.856 347.657 929.699 351.989 927.385 355.786C925.071 359.583 921.986 362.58 918.129 364.775C914.272 366.97 910 368.068 905.313 368.068ZM905.313 357.388C907.924 357.388 910.208 356.765 912.166 355.519C914.183 354.273 915.756 352.552 916.883 350.357C918.07 348.102 918.663 345.581 918.663 342.792C918.663 339.944 918.07 337.452 916.883 335.316C915.756 333.121 914.183 331.4 912.166 330.154C910.208 328.849 907.924 328.196 905.313 328.196C902.643 328.196 900.299 328.849 898.282 330.154C896.265 331.4 894.663 333.121 893.476 335.316C892.349 337.452 891.785 339.944 891.785 342.792C891.785 345.581 892.349 348.102 893.476 350.357C894.663 352.552 896.265 354.273 898.282 355.519C900.299 356.765 902.643 357.388 905.313 357.388Z" fill="#2E5AA7"/>
<path d="M939.698 367V318.584H950.645V328.107L949.755 326.416C950.882 323.509 952.721 321.313 955.273 319.83C957.883 318.287 960.909 317.516 964.351 317.516C967.911 317.516 971.055 318.287 973.785 319.83C976.573 321.373 978.739 323.538 980.282 326.327C981.824 329.056 982.596 332.231 982.596 335.85V367H970.937V338.609C970.937 336.473 970.521 334.634 969.691 333.091C968.86 331.548 967.703 330.362 966.22 329.531C964.796 328.641 963.105 328.196 961.147 328.196C959.248 328.196 957.557 328.641 956.074 329.531C954.59 330.362 953.433 331.548 952.603 333.091C951.772 334.634 951.357 336.473 951.357 338.609V367H939.698Z" fill="#2E5AA7"/>
<path d="M1014.53 367.534C1009.07 367.534 1004.83 366.051 1001.8 363.084C998.833 360.058 997.349 355.816 997.349 350.357V328.997H988.983V318.584H989.873C992.247 318.584 994.086 317.961 995.391 316.715C996.697 315.469 997.349 313.659 997.349 311.286V307.548H1009.01V318.584H1020.13V328.997H1009.01V349.734C1009.01 351.336 1009.28 352.701 1009.81 353.828C1010.4 354.955 1011.29 355.816 1012.48 356.409C1013.73 357.002 1015.3 357.299 1017.2 357.299C1017.61 357.299 1018.09 357.269 1018.62 357.21C1019.21 357.151 1019.78 357.091 1020.31 357.032V367C1019.48 367.119 1018.53 367.237 1017.46 367.356C1016.4 367.475 1015.42 367.534 1014.53 367.534Z" fill="#2E5AA7"/>
<path d="M1029.22 367V318.584H1040.17V329.353L1039.28 327.751C1040.4 324.132 1042.15 321.61 1044.53 320.186C1046.96 318.762 1049.87 318.05 1053.25 318.05H1056.1V328.374H1051.91C1048.59 328.374 1045.92 329.412 1043.9 331.489C1041.89 333.506 1040.88 336.354 1040.88 340.033V367H1029.22Z" fill="#2E5AA7"/>
<path d="M1086.18 368.068C1081.43 368.068 1077.1 366.97 1073.19 364.775C1069.33 362.58 1066.25 359.583 1063.93 355.786C1061.68 351.989 1060.55 347.657 1060.55 342.792C1060.55 337.927 1061.68 333.595 1063.93 329.798C1066.25 326.001 1069.33 323.004 1073.19 320.809C1077.04 318.614 1081.38 317.516 1086.18 317.516C1090.93 317.516 1095.23 318.614 1099.09 320.809C1102.94 323.004 1106 326.001 1108.25 329.798C1110.57 333.536 1111.72 337.867 1111.72 342.792C1111.72 347.657 1110.57 351.989 1108.25 355.786C1105.94 359.583 1102.85 362.58 1099 364.775C1095.14 366.97 1090.87 368.068 1086.18 368.068ZM1086.18 357.388C1088.79 357.388 1091.08 356.765 1093.03 355.519C1095.05 354.273 1096.62 352.552 1097.75 350.357C1098.94 348.102 1099.53 345.581 1099.53 342.792C1099.53 339.944 1098.94 337.452 1097.75 335.316C1096.62 333.121 1095.05 331.4 1093.03 330.154C1091.08 328.849 1088.79 328.196 1086.18 328.196C1083.51 328.196 1081.17 328.849 1079.15 330.154C1077.13 331.4 1075.53 333.121 1074.34 335.316C1073.22 337.452 1072.65 339.944 1072.65 342.792C1072.65 345.581 1073.22 348.102 1074.34 350.357C1075.53 352.552 1077.13 354.273 1079.15 355.519C1081.17 356.765 1083.51 357.388 1086.18 357.388Z" fill="#2E5AA7"/>
<path d="M1120.57 367V299.627H1132.22V367H1120.57Z" fill="#2E5AA7"/>
</svg>
