<svg width="435" height="372" viewBox="0 0 435 372" fill="none" xmlns="http://www.w3.org/2000/svg">
<path d="M8.71418 307.4L110.721 214.63C115.128 210.018 129.359 200.982 142.204 204.252C158.261 208.341 176.256 259.536 194.781 264.002C203.911 266.204 210.637 263.937 218.394 258.971C238.858 240.731 306.366 178.468 330.475 156.138C347.791 140.1 365.421 118.716 391.238 132.867C414.536 145.638 399.738 190.52 393.442 213.372C391.448 213.267 381.226 213.121 366.366 213.372C347.791 213.687 338.031 215.259 324.808 223.121C311.585 230.983 297.893 248.134 304.973 278.783C312.529 311.488 356.291 301.739 388.09 301.739C388.614 308.029 387.145 325.702 373.292 344.822C355.977 368.722 333.938 370.923 304.658 370.923C274.734 370.923 255.859 374.068 251.137 362.747C246.414 351.426 268.138 279.412 265.619 276.896C263.1 274.38 247.359 291.047 233.506 303.94C220.955 315.622 212.412 325.639 194.781 325.325C177.151 325.01 160.464 301.739 156.686 294.506C152.908 287.273 139.685 265.575 136.537 265.575C133.389 265.575 121.11 339.476 116.388 350.483C111.665 361.489 105.054 366.835 89.9415 369.98C74.8294 373.125 57.8284 372.181 37.3642 369.98C16.8999 367.779 4.93623 353.942 1.15821 340.105C-1.8642 329.035 1.15811 315.261 8.71418 307.4Z" fill="#2E5AA7"/>
<path d="M428.074 222.492C429.222 222.44 430.935 222.685 432.375 223.603C433.84 224.537 435 226.155 435 228.781C435 230.068 434.601 233.214 433.963 237.437C433.323 241.672 432.437 247.021 431.453 252.734C429.486 264.154 427.127 277.04 425.553 285.427C425.49 287.015 424.801 289.354 422.942 291.303C421.062 293.273 418.01 294.82 413.276 294.82H339.563L339.523 294.81C334.964 293.592 328.206 290.406 322.709 284.796C317.205 279.18 312.966 271.13 313.474 260.213C314.107 246.613 319.101 237.723 325.863 231.962C332.616 226.209 341.102 223.6 348.69 222.495L348.713 222.491L428.074 222.492ZM357.236 240.103C348.542 240.103 341.494 247.142 341.494 255.826C341.494 264.51 348.542 271.55 357.236 271.55C365.93 271.55 372.978 264.51 372.978 255.826C372.978 247.142 365.93 240.103 357.236 240.103Z" fill="#FF9C13"/>
<path d="M129.925 177.837C120.858 183.371 65.0695 234.651 38.3086 259.6C38.3086 241.989 71.0514 134.439 88.0525 104.564C105.054 74.6893 151.334 64.6261 179.04 75.3182C206.745 86.0103 232.876 133.496 236.339 134.439C239.11 135.194 242.741 132.867 244.21 131.609L337.086 52.9906L318.511 37.2669C317.357 36.638 315.111 34.7511 315.363 32.2353C315.615 29.7196 319.875 28.4617 321.974 28.1472L420.203 0.159036C421.462 -0.0506127 424.17 -0.218332 424.925 0.787983C425.681 1.7943 425.66 3.30377 425.555 3.93272L403.202 100.162C402.782 101.42 401.313 103.998 398.794 104.25C396.275 104.501 393.966 102.677 393.127 101.734L373.292 81.2932C338.136 114.837 264.423 185.007 250.822 197.334C233.821 212.743 227.524 218.089 212.097 219.662C196.67 221.234 173.058 190.416 166.131 181.296C159.205 172.176 141.259 170.918 129.925 177.837Z" fill="#FF9C13"/>
</svg>
